<?xml version="1.0" encoding="utf-8"?><!-- Uploaded to: SVG Repo, www.svgrepo.com, Generator: SVG Repo Mixer Tools -->
<svg width="800px" height="800px" viewBox="0 -0.5 25 25" fill="none" xmlns="http://www.w3.org/2000/svg">
<path fill-rule="evenodd" clip-rule="evenodd" d="M14.9769 14H10.0229C8.56488 14.0724 7.2731 14.963 6.68693 16.3C5.97993 17.688 7.39093 19 9.03193 19H15.9679C17.6099 19 19.0209 17.688 18.3129 16.3C17.7268 14.963 16.435 14.0724 14.9769 14Z" stroke="#000000" stroke-width="1.5" stroke-linecap="round" stroke-linejoin="round"/>
<path fill-rule="evenodd" clip-rule="evenodd" d="M15.4999 8C15.4999 9.65685 14.1568 11 12.4999 11C10.8431 11 9.49994 9.65685 9.49994 8C9.49994 6.34315 10.8431 5 12.4999 5C13.2956 5 14.0587 5.31607 14.6213 5.87868C15.1839 6.44129 15.4999 7.20435 15.4999 8Z" stroke="#000000" stroke-width="1.5" stroke-linecap="round" stroke-linejoin="round"/>
</svg>